<?xml version="1.0" encoding="UTF-8"?>
<svg width="1200pt" height="1200pt" version="1.1" viewBox="0 0 1200 1200" xmlns="http://www.w3.org/2000/svg">
 <path d="m827.81 781.6c-1.6406-30.234 44.25-32.719 45.891-2.5312 2.8594 51.891 4.8281 44.812-75.516 59.297-31.031 5.5781-48.141 43.219-27.75 71.203l34.312 47.156c6.9375 9.5625 5.4375 22.641-3.0469 30.422l-92.953 95.297c-31.078 31.875-69.984-56.578-121.22-34.594-50.953 21.844-14.062 111.09-58.406 111.61l-134.39 1.6406c-11.344 0.14062-20.859-8.0156-22.828-18.797-4.2188-22.969-8.25-63.891-19.875-78.094-14.578-17.812-41.531-22.641-61.969-7.7812l-47.156 34.312c-9.5625 6.9375-22.641 5.4375-30.422-3.0469l-95.344-92.953c-31.922-31.078 56.578-69.938 34.594-121.22-21.844-50.953-111.09-14.062-111.61-58.406l-1.6406-134.39c-0.14062-11.344 8.0156-20.859 18.797-22.828 22.312-4.0781 63.562-7.9688 78.094-19.875 17.812-14.578 22.641-41.531 7.7812-61.969l-34.312-47.156c-6.9375-9.5625-5.4375-22.641 3.0469-30.422l92.953-95.297c31.078-31.922 69.938 56.578 121.22 34.594 50.859-21.797 14.203-109.88 57.75-111.56v-0.046875c23.016-0.98438 57.328-8.25 58.453 20.578 0.98438 25.219-24.844 23.953-37.781 24.516-7.0781 44.672-8.5312 86.531-60.422 108.8-51.562 22.125-83.25-5.6719-119.86-30.984l-66.75 68.438c26.344 36.234 54.703 66.891 33.844 119.16-20.953 52.406-62.906 54.891-106.69 62.906l1.1719 95.625c44.391 7.0312 86.062 8.625 108.23 60.328 22.078 51.562-5.6719 83.25-30.984 119.86l68.391 66.75c36.234-26.344 66.891-54.703 119.16-33.797 52.219 20.859 54.844 62.531 62.906 106.69l95.625-1.1719c7.0312-44.391 8.625-86.062 60.328-108.23 51.562-22.078 83.25 5.6719 119.86 30.984l66.75-68.391c-26.344-36.234-54.703-66.891-33.844-119.16 20.859-52.125 62.391-54.797 105.8-62.719zm-7.4062-537.24c-74.062 0.89062-133.31 61.594-132.42 135.66 1.4531 119.16 146.86 177.19 230.02 91.969 83.016-85.078 21.656-229.08-97.594-227.63zm63.188 70.969c-56.203-54.844-150.66-13.969-149.72 64.125s96.422 116.58 151.18 60.469c34.031-34.828 33.422-90.562-1.4531-124.6zm26.062 335.63c3.6094-22.734 29.766-34.688 49.406-21.094 71.578 49.453 42.328 44.531 142.22-52.453 19.641-19.078-4.6406-40.969-24.422-68.203-10.453-14.391-6.9844-33.188 5.4375-43.359 10.172-8.3438 43.547-11.859 60.422-14.953 10.828-1.9688 18.938-11.484 18.797-22.828l-1.3125-107.58c-0.28125-26.062-33.75-24.703-65.578-29.672-22.734-3.6094-34.688-29.719-21.094-49.406 49.453-71.578 44.531-42.328-52.453-142.22-19.078-19.641-40.969 4.6406-68.203 24.422-14.391 10.453-33.234 6.9844-43.359-5.4375-8.3438-10.172-11.859-43.547-14.953-60.422-1.9688-10.828-11.484-18.938-22.828-18.797l-107.58 1.3125c-26.062 0.28125-24.656 33.797-29.672 65.578-3.5625 22.734-29.719 34.688-49.406 21.094-71.578-49.453-42.328-44.531-142.22 52.453-19.641 19.078 4.6406 40.969 24.422 68.203 10.453 14.391 6.9844 33.234-5.4375 43.359-10.172 8.3438-43.547 11.859-60.422 14.953-10.828 1.9688-18.938 11.484-18.797 22.828l1.3125 107.58c0.28125 26.062 33.797 24.703 65.578 29.672 22.734 3.6094 34.688 29.766 21.094 49.406-49.453 71.578-44.531 42.328 52.453 142.22 19.078 19.641 40.969-4.6406 68.203-24.422 14.391-10.453 33.234-6.9844 43.359 5.4375 8.3438 10.172 11.859 43.5 14.953 60.422 1.9688 10.828 11.484 18.938 22.828 18.797l107.58-1.3125c26.062-0.28125 24.656-33.797 29.672-65.578zm-49.594 19.922c5.625-35.531 8.25-68.25 50.391-86.344 42-18 67.922 2.8125 97.172 23.062l48.047-49.219c-21.047-28.969-42.375-54.094-25.359-96.656s49.781-46.031 85.031-52.453l-0.84375-68.812c-35.531-5.625-68.25-8.25-86.344-50.391-18-42 2.8125-67.875 23.062-97.172l-49.219-48.188c-28.969 21.047-54.094 42.375-96.656 25.359s-46.031-49.781-52.453-85.031l-68.859 0.84375c-5.625 35.531-8.25 68.25-50.391 86.344-42 18-67.922-2.8125-97.172-23.062l-48.047 49.219c21.094 28.969 42.375 54.094 25.359 96.703-17.016 42.562-49.781 46.031-85.031 52.453l0.84375 68.859c35.531 5.5781 68.25 8.25 86.344 50.391 18 42-2.8125 67.922-23.062 97.172l49.219 48.047c28.969-21.094 54.094-42.375 96.656-25.359s46.031 49.781 52.453 85.031zm-405.24-86.203c-87.281 1.0781-157.13 72.516-156.24 159.79h-0.09375c0 85.312 71.719 157.4 159.89 156.52v0.09375c42.938 0 83.812-19.312 111.61-47.812 98.016-100.41 25.547-270.32-115.17-268.6zm80.391 77.859c-69.797-68.109-190.6-21.234-190.6 81.984h-0.09375c0.89062 61.5 50.156 110.53 113.91 110.53v0.09375c99.375-1.5 148.13-123 76.781-192.61z" fill="#00449e" fill-rule="evenodd"/>
</svg>
